<?xml version="1.0" encoding="iso-8859-1"?>
<!-- Generator: Adobe Illustrator 19.0.0, SVG Export Plug-In . SVG Version: 6.00 Build 0)  -->
<svg version="1.1" id="Layer_1" xmlns="http://www.w3.org/2000/svg" xmlns:xlink="http://www.w3.org/1999/xlink" x="0px" y="0px"
	 viewBox="0 0 511.808 511.808" style="enable-background:new 0 0 511.808 511.808;" xml:space="preserve">
<g>
	<g>
		<path d="M128,277.204H59.7c-4.7,0-8.5,3.8-8.5,8.5v102.4c0,4.7,3.8,8.5,8.5,8.5H128c4.7,0,8.5-3.8,8.5-8.5v-102.3
			C136.5,281.104,132.7,277.204,128,277.204z M85.4,379.604h-0.1h-17v-85.3h17.1V379.604z M119.5,379.604h-17.1v-85.3h17.1V379.604z
			"/>
	</g>
</g>
<g>
	<g>
		<path d="M503.5,191.904H494l-16.2-146c-0.5-4.3-4.1-7.6-8.5-7.6H42.7c-4.4,0-8,3.3-8.5,7.6l-16.2,146H8.5c-4.7,0-8.5,3.8-8.5,8.5
			v51.2c0,4.7,3.8,8.5,8.5,8.5H17v204.8c0,4.7,3.8,8.5,8.5,8.5H162h68.3v-162c0-4.7,3.8-8.5,8.5-8.5h102.4c4.7,0,8.5,3.8,8.5,8.5
			v162.1H418h68.3c4.7,0,8.5-3.8,8.5-8.5v-204.8h8.5c4.7,0,8.5-3.8,8.5-8.5v-51.2C512,195.704,508.2,191.904,503.5,191.904z
			 M17.1,243.104v-34.1h8.5H128v8.5c0,3,1.6,5.8,4.2,7.4c2.6,1.5,5.8,1.6,8.5,0.1l12.9-7.2v25.3h-128H17.1z M153.6,456.404H34.1
			v-17.1h119.5V456.404z M153.6,422.304H34.1v-162.1h119.5V422.304z M341.4,268.704H238.9c-4.7,0-8.5-3.8-8.5-8.5v-17.1
			c0-32.9,26.8-59.7,59.7-59.7s59.7,26.8,59.7,59.7v17.1h0.1C349.9,264.904,346.1,268.704,341.4,268.704z M294.3,124.704
			c-2.6-1.4-5.7-1.4-8.3,0l-128,71.1l-12.9,7.2v-2.6v-20.5l145.1-80.6l145,80.6v20.6v2.6l-12.9-7.2L294.3,124.704z M426.7,294.304
			h17.1v85.3h-17.1V294.304z M477.9,456.404h-51.2v-17.1h51.2V456.404z M477.9,422.304h-51.2v-25.6h25.6c4.7,0,8.5-3.8,8.5-8.5
			v-102.4c0-4.7-3.8-8.5-8.5-8.5h-25.6v-17.1h51.2V422.304z M494.9,243.104h-8.5h-59.7v-25.3l12.9,7.2c2.7,1.5,5.9,1.4,8.5-0.1
			c2.6-1.5,4.2-4.3,4.2-7.4v-8.5h34.1h8.5V243.104z"/>
	</g>
</g>
<g>
	<g>
		<path d="M247.5,319.904v153.6h85.3v-153.6H247.5z M315.7,396.604h-8.5c-4.7,0-8.5-3.8-8.5-8.5c0-4.6,3.8-8.5,8.5-8.5h8.5
			c4.7,0,8.5,3.8,8.5,8.5S320.4,396.604,315.7,396.604z"/>
	</g>
</g>
<g>
	<g>
		<path d="M290.1,200.404c-23.5,0-42.7,19.1-42.7,42.7v8.5h85.3v-8.5C332.8,219.604,313.7,200.404,290.1,200.404z"/>
	</g>
</g>
<g>
</g>
<g>
</g>
<g>
</g>
<g>
</g>
<g>
</g>
<g>
</g>
<g>
</g>
<g>
</g>
<g>
</g>
<g>
</g>
<g>
</g>
<g>
</g>
<g>
</g>
<g>
</g>
<g>
</g>
</svg>
